<svg xmlns="http://www.w3.org/2000/svg" xmlns:xlink="http://www.w3.org/1999/xlink" width="500" zoomAndPan="magnify" viewBox="0 0 375 374.999991" height="500" preserveAspectRatio="xMidYMid meet" version="1.0"><defs><clipPath id="bff51cb3d6"><path d="M 0 151 L 148 151 L 148 324.09375 L 0 324.09375 Z M 0 151 " clip-rule="nonzero"/></clipPath><clipPath id="93788edf05"><path d="M 123 222 L 182 222 L 182 324.09375 L 123 324.09375 Z M 123 222 " clip-rule="nonzero"/></clipPath><clipPath id="afdc57bb3f"><path d="M 84 51.09375 L 291 51.09375 L 291 324.09375 L 84 324.09375 Z M 84 51.09375 " clip-rule="nonzero"/></clipPath><clipPath id="bdf5dc8607"><path d="M 227 51.09375 L 375 51.09375 L 375 224 L 227 224 Z M 227 51.09375 " clip-rule="nonzero"/></clipPath><clipPath id="1aa1462ef3"><path d="M 193 51.09375 L 252 51.09375 L 252 153 L 193 153 Z M 193 51.09375 " clip-rule="nonzero"/></clipPath><clipPath id="b4687364c1"><path d="M 50 51.09375 L 109 51.09375 L 109 112 L 50 112 Z M 50 51.09375 " clip-rule="nonzero"/></clipPath><clipPath id="7cca0d8660"><path d="M 266 263 L 325 263 L 325 324.09375 L 266 324.09375 Z M 266 263 " clip-rule="nonzero"/></clipPath></defs><rect x="-37.5" width="450" fill="#ffffff" y="-37.499999" height="449.999989" fill-opacity="1"/><rect x="-37.5" width="450" fill="#ffffff" y="-37.499999" height="449.999989" fill-opacity="1"/><rect x="-37.5" width="450" fill="#ffffff" y="-37.499999" height="449.999989" fill-opacity="1"/><g clip-path="url(#bff51cb3d6)"><path fill="#365b6d" d="M 0.0195312 151.464844 L 47.199219 151.464844 L 147.167969 324.144531 L 99.648438 324.144531 L 0.0195312 151.464844 " fill-opacity="1" fill-rule="nonzero"/></g><g clip-path="url(#93788edf05)"><path fill="#002c3c" d="M 181.984375 263.800781 L 147.167969 324.144531 L 123.535156 283.328125 L 158.394531 222.914062 L 181.984375 263.800781 " fill-opacity="1" fill-rule="nonzero"/></g><g clip-path="url(#afdc57bb3f)"><path fill="#f68712" d="M 290.144531 324.144531 L 217.15625 198.078125 L 132.378906 51.140625 L 84.859375 51.140625 L 157.84375 177.207031 L 242.621094 324.144531 L 290.144531 324.144531 " fill-opacity="1" fill-rule="nonzero"/></g><g clip-path="url(#bdf5dc8607)"><path fill="#365b6d" d="M 374.980469 223.820312 L 327.800781 223.820312 L 227.832031 51.140625 L 275.351562 51.140625 L 374.980469 223.820312 " fill-opacity="1" fill-rule="nonzero"/></g><g clip-path="url(#1aa1462ef3)"><path fill="#002c3c" d="M 193.015625 111.484375 L 227.832031 51.140625 L 251.464844 91.957031 L 216.605469 152.371094 L 193.015625 111.484375 " fill-opacity="1" fill-rule="nonzero"/></g><g clip-path="url(#b4687364c1)"><path fill="#e76f19" d="M 108.492188 91.957031 L 84.859375 51.140625 L 50.042969 111.484375 L 97.222656 111.484375 L 108.492188 91.957031 " fill-opacity="1" fill-rule="nonzero"/></g><g clip-path="url(#7cca0d8660)"><path fill="#e76f19" d="M 266.507812 283.328125 L 290.144531 324.144531 L 324.957031 263.800781 L 277.777344 263.800781 L 266.507812 283.328125 " fill-opacity="1" fill-rule="nonzero"/></g></svg>