<svg xmlns="http://www.w3.org/2000/svg" xmlns:xlink="http://www.w3.org/1999/xlink" width="700" zoomAndPan="magnify" viewBox="0 0 525 217.499994" height="200" preserveAspectRatio="xMidYMid meet" version="1.0"><defs><g/><clipPath id="f4b387785e"><path d="M 75.492188 99 L 112 99 L 112 141.863281 L 75.492188 141.863281 Z M 75.492188 99 " clip-rule="nonzero"/></clipPath><clipPath id="d8fa677a28"><path d="M 105 117 L 120 117 L 120 141.863281 L 105 141.863281 Z M 105 117 " clip-rule="nonzero"/></clipPath><clipPath id="3320bdcd09"><path d="M 96 75.265625 L 147 75.265625 L 147 141.863281 L 96 141.863281 Z M 96 75.265625 " clip-rule="nonzero"/></clipPath><clipPath id="510be6e0cf"><path d="M 130 75.265625 L 166.78125 75.265625 L 166.78125 118 L 130 118 Z M 130 75.265625 " clip-rule="nonzero"/></clipPath><clipPath id="07b5bc5f1f"><path d="M 122 75.265625 L 137 75.265625 L 137 100 L 122 100 Z M 122 75.265625 " clip-rule="nonzero"/></clipPath><clipPath id="f77eb94013"><path d="M 87 75.265625 L 102 75.265625 L 102 90 L 87 90 Z M 87 75.265625 " clip-rule="nonzero"/></clipPath><clipPath id="854b39487b"><path d="M 140 127 L 155 127 L 155 141.863281 L 140 141.863281 Z M 140 127 " clip-rule="nonzero"/></clipPath></defs><g clip-path="url(#f4b387785e)"><path fill="#ffffff" d="M 75.496094 99.75 L 86.980469 99.75 L 111.316406 141.875 L 99.75 141.875 L 75.496094 99.75 " fill-opacity="1" fill-rule="nonzero"/></g><g clip-path="url(#d8fa677a28)"><path fill="#ffffff" d="M 119.792969 127.15625 L 111.316406 141.875 L 105.5625 131.917969 L 114.050781 117.179688 L 119.792969 127.15625 " fill-opacity="1" fill-rule="nonzero"/></g><g clip-path="url(#3320bdcd09)"><path fill="#ffffff" d="M 146.125 141.875 L 128.355469 111.121094 L 107.71875 75.277344 L 96.148438 75.277344 L 113.914062 106.03125 L 134.554688 141.875 L 146.125 141.875 " fill-opacity="1" fill-rule="nonzero"/></g><g clip-path="url(#510be6e0cf)"><path fill="#ffffff" d="M 166.777344 117.402344 L 155.289062 117.402344 L 130.953125 75.277344 L 142.523438 75.277344 L 166.777344 117.402344 " fill-opacity="1" fill-rule="nonzero"/></g><g clip-path="url(#07b5bc5f1f)"><path fill="#ffffff" d="M 122.476562 90 L 130.953125 75.277344 L 136.707031 85.234375 L 128.21875 99.972656 L 122.476562 90 " fill-opacity="1" fill-rule="nonzero"/></g><g clip-path="url(#f77eb94013)"><path fill="#ffffff" d="M 101.902344 85.234375 L 96.148438 75.277344 L 87.671875 90 L 99.160156 90 L 101.902344 85.234375 " fill-opacity="1" fill-rule="nonzero"/></g><g clip-path="url(#854b39487b)"><path fill="#ffffff" d="M 140.371094 131.917969 L 146.125 141.875 L 154.597656 127.15625 L 143.113281 127.15625 L 140.371094 131.917969 " fill-opacity="1" fill-rule="nonzero"/></g><g fill="#ffffff" fill-opacity="1"><g transform="translate(152.73122, 115.178217)"><g/></g></g><g fill="#ffffff" fill-opacity="1"><g transform="translate(172.046191, 115.178217)"><g><path d="M 4.453125 -29.65625 L 8.6875 -29.65625 L 8.6875 0 L 4.453125 0 Z M 4.453125 -29.65625 "/></g></g></g><g fill="#ffffff" fill-opacity="1"><g transform="translate(193.107602, 115.178217)"><g><path d="M 29.953125 -29.65625 L 29.953125 0 L 26.484375 0 L 8.6875 -22.125 L 8.6875 0 L 4.453125 0 L 4.453125 -29.65625 L 7.921875 -29.65625 L 25.71875 -7.546875 L 25.71875 -29.65625 Z M 29.953125 -29.65625 "/></g></g></g><g fill="#ffffff" fill-opacity="1"><g transform="translate(235.439392, 115.178217)"><g><path d="M 10.34375 -25.96875 L 0.171875 -25.96875 L 0.171875 -29.65625 L 24.703125 -29.65625 L 24.703125 -25.96875 L 14.53125 -25.96875 L 14.53125 0 L 10.34375 0 Z M 10.34375 -25.96875 "/></g></g></g><g fill="#ffffff" fill-opacity="1"><g transform="translate(268.237649, 115.178217)"><g><path d="M 25.96875 -3.6875 L 25.96875 0 L 4.453125 0 L 4.453125 -29.65625 L 25.375 -29.65625 L 25.375 -25.96875 L 8.6875 -25.96875 L 8.6875 -16.859375 L 23.5625 -16.859375 L 23.5625 -13.265625 L 8.6875 -13.265625 L 8.6875 -3.6875 Z M 25.96875 -3.6875 "/></g></g></g><g fill="#ffffff" fill-opacity="1"><g transform="translate(304.552716, 115.178217)"><g><path d="M 24.28125 0 L 17.875 -9.109375 C 17.09375 -9.054688 16.472656 -9.03125 16.015625 -9.03125 L 8.6875 -9.03125 L 8.6875 0 L 4.453125 0 L 4.453125 -29.65625 L 16.015625 -29.65625 C 19.859375 -29.65625 22.878906 -28.738281 25.078125 -26.90625 C 27.285156 -25.070312 28.390625 -22.546875 28.390625 -19.328125 C 28.390625 -17.035156 27.820312 -15.082031 26.6875 -13.46875 C 25.5625 -11.863281 23.953125 -10.691406 21.859375 -9.953125 L 28.90625 0 Z M 15.890625 -12.625 C 18.578125 -12.625 20.625 -13.203125 22.03125 -14.359375 C 23.445312 -15.523438 24.15625 -17.179688 24.15625 -19.328125 C 24.15625 -21.472656 23.445312 -23.113281 22.03125 -24.25 C 20.625 -25.394531 18.578125 -25.96875 15.890625 -25.96875 L 8.6875 -25.96875 L 8.6875 -12.625 Z M 15.890625 -12.625 "/></g></g></g><g fill="#ffffff" fill-opacity="1"><g transform="translate(343.282941, 115.178217)"><g><path d="M 4.453125 -29.65625 L 8.6875 -29.65625 L 8.6875 0 L 4.453125 0 Z M 4.453125 -29.65625 "/></g></g></g><g fill="#ffffff" fill-opacity="1"><g transform="translate(364.344363, 115.178217)"><g><path d="M 17.84375 0.34375 C 14.84375 0.34375 12.140625 -0.3125 9.734375 -1.625 C 7.335938 -2.945312 5.453125 -4.765625 4.078125 -7.078125 C 2.710938 -9.390625 2.03125 -11.972656 2.03125 -14.828125 C 2.03125 -17.679688 2.710938 -20.265625 4.078125 -22.578125 C 5.453125 -24.898438 7.335938 -26.71875 9.734375 -28.03125 C 12.140625 -29.34375 14.84375 -30 17.84375 -30 C 20.8125 -30 23.492188 -29.34375 25.890625 -28.03125 C 28.296875 -26.71875 30.175781 -24.910156 31.53125 -22.609375 C 32.882812 -20.304688 33.5625 -17.710938 33.5625 -14.828125 C 33.5625 -11.953125 32.882812 -9.363281 31.53125 -7.0625 C 30.175781 -4.757812 28.296875 -2.945312 25.890625 -1.625 C 23.492188 -0.3125 20.8125 0.34375 17.84375 0.34375 Z M 17.84375 -3.4375 C 20.019531 -3.4375 21.972656 -3.929688 23.703125 -4.921875 C 25.441406 -5.910156 26.8125 -7.269531 27.8125 -9 C 28.820312 -10.738281 29.328125 -12.679688 29.328125 -14.828125 C 29.328125 -16.972656 28.820312 -18.914062 27.8125 -20.65625 C 26.8125 -22.394531 25.441406 -23.757812 23.703125 -24.75 C 21.972656 -25.738281 20.019531 -26.234375 17.84375 -26.234375 C 15.664062 -26.234375 13.691406 -25.738281 11.921875 -24.75 C 10.160156 -23.757812 8.773438 -22.394531 7.765625 -20.65625 C 6.765625 -18.914062 6.265625 -16.972656 6.265625 -14.828125 C 6.265625 -12.679688 6.765625 -10.738281 7.765625 -9 C 8.773438 -7.269531 10.160156 -5.910156 11.921875 -4.921875 C 13.691406 -3.929688 15.664062 -3.4375 17.84375 -3.4375 Z M 17.84375 -3.4375 "/></g></g></g><g fill="#ffffff" fill-opacity="1"><g transform="translate(407.862559, 115.178217)"><g><path d="M 24.28125 0 L 17.875 -9.109375 C 17.09375 -9.054688 16.472656 -9.03125 16.015625 -9.03125 L 8.6875 -9.03125 L 8.6875 0 L 4.453125 0 L 4.453125 -29.65625 L 16.015625 -29.65625 C 19.859375 -29.65625 22.878906 -28.738281 25.078125 -26.90625 C 27.285156 -25.070312 28.390625 -22.546875 28.390625 -19.328125 C 28.390625 -17.035156 27.820312 -15.082031 26.6875 -13.46875 C 25.5625 -11.863281 23.953125 -10.691406 21.859375 -9.953125 L 28.90625 0 Z M 15.890625 -12.625 C 18.578125 -12.625 20.625 -13.203125 22.03125 -14.359375 C 23.445312 -15.523438 24.15625 -17.179688 24.15625 -19.328125 C 24.15625 -21.472656 23.445312 -23.113281 22.03125 -24.25 C 20.625 -25.394531 18.578125 -25.96875 15.890625 -25.96875 L 8.6875 -25.96875 L 8.6875 -12.625 Z M 15.890625 -12.625 "/></g></g></g><g fill="#ffffff" fill-opacity="1"><g transform="translate(446.583025, 115.178217)"><g/></g></g><g fill="#ffffff" fill-opacity="1"><g transform="translate(173.568025, 131.685893)"><g><path d="M 6 0.15625 C 4.976562 0.15625 3.988281 0 3.03125 -0.3125 C 2.082031 -0.632812 1.335938 -1.050781 0.796875 -1.5625 L 1.515625 -3.078125 C 2.035156 -2.609375 2.695312 -2.226562 3.5 -1.9375 C 4.3125 -1.644531 5.144531 -1.5 6 -1.5 C 7.132812 -1.5 7.976562 -1.6875 8.53125 -2.0625 C 9.09375 -2.445312 9.375 -2.957031 9.375 -3.59375 C 9.375 -4.0625 9.21875 -4.441406 8.90625 -4.734375 C 8.601562 -5.023438 8.226562 -5.25 7.78125 -5.40625 C 7.332031 -5.5625 6.703125 -5.734375 5.890625 -5.921875 C 4.867188 -6.171875 4.039062 -6.414062 3.40625 -6.65625 C 2.78125 -6.90625 2.242188 -7.285156 1.796875 -7.796875 C 1.347656 -8.316406 1.125 -9.007812 1.125 -9.875 C 1.125 -10.601562 1.316406 -11.257812 1.703125 -11.84375 C 2.085938 -12.425781 2.664062 -12.890625 3.4375 -13.234375 C 4.21875 -13.585938 5.1875 -13.765625 6.34375 -13.765625 C 7.144531 -13.765625 7.929688 -13.660156 8.703125 -13.453125 C 9.484375 -13.242188 10.148438 -12.945312 10.703125 -12.5625 L 10.0625 -11 C 9.5 -11.363281 8.890625 -11.640625 8.234375 -11.828125 C 7.585938 -12.015625 6.957031 -12.109375 6.34375 -12.109375 C 5.238281 -12.109375 4.410156 -11.90625 3.859375 -11.5 C 3.304688 -11.101562 3.03125 -10.585938 3.03125 -9.953125 C 3.03125 -9.484375 3.1875 -9.101562 3.5 -8.8125 C 3.8125 -8.519531 4.195312 -8.289062 4.65625 -8.125 C 5.113281 -7.96875 5.738281 -7.800781 6.53125 -7.625 C 7.550781 -7.375 8.375 -7.125 9 -6.875 C 9.625 -6.632812 10.160156 -6.257812 10.609375 -5.75 C 11.054688 -5.25 11.28125 -4.570312 11.28125 -3.71875 C 11.28125 -3 11.082031 -2.34375 10.6875 -1.75 C 10.300781 -1.164062 9.710938 -0.703125 8.921875 -0.359375 C 8.128906 -0.015625 7.15625 0.15625 6 0.15625 Z M 6 0.15625 "/></g></g></g><g fill="#ffffff" fill-opacity="1"><g transform="translate(188.848873, 131.685893)"><g><path d="M 7.671875 0.15625 C 5.859375 0.15625 4.445312 -0.359375 3.4375 -1.390625 C 2.425781 -2.429688 1.921875 -3.925781 1.921875 -5.875 L 1.921875 -13.609375 L 3.875 -13.609375 L 3.875 -5.953125 C 3.875 -3.035156 5.148438 -1.578125 7.703125 -1.578125 C 8.941406 -1.578125 9.890625 -1.9375 10.546875 -2.65625 C 11.210938 -3.375 11.546875 -4.472656 11.546875 -5.953125 L 11.546875 -13.609375 L 13.4375 -13.609375 L 13.4375 -5.875 C 13.4375 -3.914062 12.929688 -2.421875 11.921875 -1.390625 C 10.910156 -0.359375 9.492188 0.15625 7.671875 0.15625 Z M 7.671875 0.15625 "/></g></g></g><g fill="#ffffff" fill-opacity="1"><g transform="translate(207.434372, 131.685893)"><g><path d="M 6.46875 -6.046875 L 3.984375 -3.515625 L 3.984375 0 L 2.046875 0 L 2.046875 -13.609375 L 3.984375 -13.609375 L 3.984375 -6 L 11.375 -13.609375 L 13.59375 -13.609375 L 7.78125 -7.484375 L 13.953125 0 L 11.6875 0 Z M 6.46875 -6.046875 "/></g></g></g><g fill="#ffffff" fill-opacity="1"><g transform="translate(224.620256, 131.685893)"><g><path d="M 10.703125 -3.40625 L 3.484375 -3.40625 L 1.984375 0 L -0.015625 0 L 6.140625 -13.609375 L 8.0625 -13.609375 L 14.25 0 L 12.203125 0 Z M 10.03125 -4.953125 L 7.09375 -11.625 L 4.15625 -4.953125 Z M 10.03125 -4.953125 "/></g></g></g><g fill="#ffffff" fill-opacity="1"><g transform="translate(242.058838, 131.685893)"><g><path d="M 11.203125 -7.0625 C 11.984375 -6.832031 12.601562 -6.429688 13.0625 -5.859375 C 13.519531 -5.285156 13.75 -4.554688 13.75 -3.671875 C 13.75 -2.492188 13.300781 -1.585938 12.40625 -0.953125 C 11.519531 -0.316406 10.226562 0 8.53125 0 L 2.046875 0 L 2.046875 -13.609375 L 8.140625 -13.609375 C 9.703125 -13.609375 10.90625 -13.296875 11.75 -12.671875 C 12.59375 -12.046875 13.015625 -11.1875 13.015625 -10.09375 C 13.015625 -9.375 12.847656 -8.753906 12.515625 -8.234375 C 12.191406 -7.722656 11.753906 -7.332031 11.203125 -7.0625 Z M 3.984375 -12.03125 L 3.984375 -7.671875 L 7.96875 -7.671875 C 8.96875 -7.671875 9.734375 -7.851562 10.265625 -8.21875 C 10.804688 -8.59375 11.078125 -9.140625 11.078125 -9.859375 C 11.078125 -10.566406 10.804688 -11.101562 10.265625 -11.46875 C 9.734375 -11.84375 8.96875 -12.03125 7.96875 -12.03125 Z M 8.453125 -1.578125 C 9.554688 -1.578125 10.382812 -1.753906 10.9375 -2.109375 C 11.5 -2.472656 11.78125 -3.046875 11.78125 -3.828125 C 11.78125 -5.347656 10.671875 -6.109375 8.453125 -6.109375 L 3.984375 -6.109375 L 3.984375 -1.578125 Z M 8.453125 -1.578125 "/></g></g></g><g fill="#ffffff" fill-opacity="1"><g transform="translate(259.983406, 131.685893)"><g><path d="M 7.671875 0.15625 C 5.859375 0.15625 4.445312 -0.359375 3.4375 -1.390625 C 2.425781 -2.429688 1.921875 -3.925781 1.921875 -5.875 L 1.921875 -13.609375 L 3.875 -13.609375 L 3.875 -5.953125 C 3.875 -3.035156 5.148438 -1.578125 7.703125 -1.578125 C 8.941406 -1.578125 9.890625 -1.9375 10.546875 -2.65625 C 11.210938 -3.375 11.546875 -4.472656 11.546875 -5.953125 L 11.546875 -13.609375 L 13.4375 -13.609375 L 13.4375 -5.875 C 13.4375 -3.914062 12.929688 -2.421875 11.921875 -1.390625 C 10.910156 -0.359375 9.492188 0.15625 7.671875 0.15625 Z M 7.671875 0.15625 "/></g></g></g><g fill="#ffffff" fill-opacity="1"><g transform="translate(278.568907, 131.685893)"><g><path d="M 14.65625 0 L 14.640625 -9.90625 L 9.71875 -1.65625 L 8.828125 -1.65625 L 3.90625 -9.859375 L 3.90625 0 L 2.046875 0 L 2.046875 -13.609375 L 3.640625 -13.609375 L 9.3125 -4.046875 L 14.90625 -13.609375 L 16.5 -13.609375 L 16.515625 0 Z M 14.65625 0 "/></g></g></g><g fill="#ffffff" fill-opacity="1"><g transform="translate(300.342414, 131.685893)"><g><path d="M 2.046875 -13.609375 L 3.984375 -13.609375 L 3.984375 0 L 2.046875 0 Z M 2.046875 -13.609375 "/></g></g></g><g fill="#ffffff" fill-opacity="1"><g transform="translate(309.577692, 131.685893)"><g/></g></g><g fill="#ffffff" fill-opacity="1"><g transform="translate(318.015969, 131.685893)"><g><path d="M 8.125 0.15625 C 6.757812 0.15625 5.53125 -0.144531 4.4375 -0.75 C 3.34375 -1.351562 2.484375 -2.179688 1.859375 -3.234375 C 1.242188 -4.296875 0.9375 -5.484375 0.9375 -6.796875 C 0.9375 -8.117188 1.242188 -9.304688 1.859375 -10.359375 C 2.484375 -11.421875 3.347656 -12.253906 4.453125 -12.859375 C 5.554688 -13.460938 6.785156 -13.765625 8.140625 -13.765625 C 9.203125 -13.765625 10.171875 -13.582031 11.046875 -13.21875 C 11.929688 -12.863281 12.6875 -12.335938 13.3125 -11.640625 L 12.046875 -10.421875 C 11.023438 -11.492188 9.75 -12.03125 8.21875 -12.03125 C 7.207031 -12.03125 6.289062 -11.800781 5.46875 -11.34375 C 4.65625 -10.894531 4.019531 -10.269531 3.5625 -9.46875 C 3.101562 -8.675781 2.875 -7.785156 2.875 -6.796875 C 2.875 -5.816406 3.101562 -4.925781 3.5625 -4.125 C 4.019531 -3.332031 4.65625 -2.707031 5.46875 -2.25 C 6.289062 -1.800781 7.207031 -1.578125 8.21875 -1.578125 C 9.738281 -1.578125 11.015625 -2.117188 12.046875 -3.203125 L 13.3125 -1.984375 C 12.6875 -1.285156 11.929688 -0.753906 11.046875 -0.390625 C 10.160156 -0.0234375 9.1875 0.15625 8.125 0.15625 Z M 8.125 0.15625 "/></g></g></g><g fill="#ffffff" fill-opacity="1"><g transform="translate(335.279594, 131.685893)"><g><path d="M 8.1875 0.15625 C 6.8125 0.15625 5.570312 -0.144531 4.46875 -0.75 C 3.363281 -1.351562 2.5 -2.1875 1.875 -3.25 C 1.25 -4.3125 0.9375 -5.492188 0.9375 -6.796875 C 0.9375 -8.109375 1.25 -9.296875 1.875 -10.359375 C 2.5 -11.421875 3.363281 -12.253906 4.46875 -12.859375 C 5.570312 -13.460938 6.8125 -13.765625 8.1875 -13.765625 C 9.539062 -13.765625 10.769531 -13.460938 11.875 -12.859375 C 12.976562 -12.253906 13.835938 -11.421875 14.453125 -10.359375 C 15.078125 -9.304688 15.390625 -8.117188 15.390625 -6.796875 C 15.390625 -5.484375 15.078125 -4.296875 14.453125 -3.234375 C 13.835938 -2.179688 12.976562 -1.351562 11.875 -0.75 C 10.769531 -0.144531 9.539062 0.15625 8.1875 0.15625 Z M 8.1875 -1.578125 C 9.1875 -1.578125 10.082031 -1.800781 10.875 -2.25 C 11.675781 -2.707031 12.304688 -3.332031 12.765625 -4.125 C 13.222656 -4.925781 13.453125 -5.816406 13.453125 -6.796875 C 13.453125 -7.785156 13.222656 -8.675781 12.765625 -9.46875 C 12.304688 -10.269531 11.675781 -10.894531 10.875 -11.34375 C 10.082031 -11.800781 9.1875 -12.03125 8.1875 -12.03125 C 7.1875 -12.03125 6.28125 -11.800781 5.46875 -11.34375 C 4.65625 -10.894531 4.019531 -10.269531 3.5625 -9.46875 C 3.101562 -8.675781 2.875 -7.785156 2.875 -6.796875 C 2.875 -5.816406 3.101562 -4.925781 3.5625 -4.125 C 4.019531 -3.332031 4.65625 -2.707031 5.46875 -2.25 C 6.28125 -1.800781 7.1875 -1.578125 8.1875 -1.578125 Z M 8.1875 -1.578125 "/></g></g></g><g fill="#ffffff" fill-opacity="1"><g transform="translate(354.817605, 131.685893)"><g><path d="M 6 0.15625 C 4.976562 0.15625 3.988281 0 3.03125 -0.3125 C 2.082031 -0.632812 1.335938 -1.050781 0.796875 -1.5625 L 1.515625 -3.078125 C 2.035156 -2.609375 2.695312 -2.226562 3.5 -1.9375 C 4.3125 -1.644531 5.144531 -1.5 6 -1.5 C 7.132812 -1.5 7.976562 -1.6875 8.53125 -2.0625 C 9.09375 -2.445312 9.375 -2.957031 9.375 -3.59375 C 9.375 -4.0625 9.21875 -4.441406 8.90625 -4.734375 C 8.601562 -5.023438 8.226562 -5.25 7.78125 -5.40625 C 7.332031 -5.5625 6.703125 -5.734375 5.890625 -5.921875 C 4.867188 -6.171875 4.039062 -6.414062 3.40625 -6.65625 C 2.78125 -6.90625 2.242188 -7.285156 1.796875 -7.796875 C 1.347656 -8.316406 1.125 -9.007812 1.125 -9.875 C 1.125 -10.601562 1.316406 -11.257812 1.703125 -11.84375 C 2.085938 -12.425781 2.664062 -12.890625 3.4375 -13.234375 C 4.21875 -13.585938 5.1875 -13.765625 6.34375 -13.765625 C 7.144531 -13.765625 7.929688 -13.660156 8.703125 -13.453125 C 9.484375 -13.242188 10.148438 -12.945312 10.703125 -12.5625 L 10.0625 -11 C 9.5 -11.363281 8.890625 -11.640625 8.234375 -11.828125 C 7.585938 -12.015625 6.957031 -12.109375 6.34375 -12.109375 C 5.238281 -12.109375 4.410156 -11.90625 3.859375 -11.5 C 3.304688 -11.101562 3.03125 -10.585938 3.03125 -9.953125 C 3.03125 -9.484375 3.1875 -9.101562 3.5 -8.8125 C 3.8125 -8.519531 4.195312 -8.289062 4.65625 -8.125 C 5.113281 -7.96875 5.738281 -7.800781 6.53125 -7.625 C 7.550781 -7.375 8.375 -7.125 9 -6.875 C 9.625 -6.632812 10.160156 -6.257812 10.609375 -5.75 C 11.054688 -5.25 11.28125 -4.570312 11.28125 -3.71875 C 11.28125 -3 11.082031 -2.34375 10.6875 -1.75 C 10.300781 -1.164062 9.710938 -0.703125 8.921875 -0.359375 C 8.128906 -0.015625 7.15625 0.15625 6 0.15625 Z M 6 0.15625 "/></g></g></g><g fill="#ffffff" fill-opacity="1"><g transform="translate(370.098455, 131.685893)"><g><path d="M 4.75 -11.921875 L 0.078125 -11.921875 L 0.078125 -13.609375 L 11.328125 -13.609375 L 11.328125 -11.921875 L 6.671875 -11.921875 L 6.671875 0 L 4.75 0 Z M 4.75 -11.921875 "/></g></g></g><g fill="#ffffff" fill-opacity="1"><g transform="translate(384.718371, 131.685893)"><g><path d="M 7.671875 0.15625 C 5.859375 0.15625 4.445312 -0.359375 3.4375 -1.390625 C 2.425781 -2.429688 1.921875 -3.925781 1.921875 -5.875 L 1.921875 -13.609375 L 3.875 -13.609375 L 3.875 -5.953125 C 3.875 -3.035156 5.148438 -1.578125 7.703125 -1.578125 C 8.941406 -1.578125 9.890625 -1.9375 10.546875 -2.65625 C 11.210938 -3.375 11.546875 -4.472656 11.546875 -5.953125 L 11.546875 -13.609375 L 13.4375 -13.609375 L 13.4375 -5.875 C 13.4375 -3.914062 12.929688 -2.421875 11.921875 -1.390625 C 10.910156 -0.359375 9.492188 0.15625 7.671875 0.15625 Z M 7.671875 0.15625 "/></g></g></g><g fill="#ffffff" fill-opacity="1"><g transform="translate(403.303872, 131.685893)"><g><path d="M 14.65625 0 L 14.640625 -9.90625 L 9.71875 -1.65625 L 8.828125 -1.65625 L 3.90625 -9.859375 L 3.90625 0 L 2.046875 0 L 2.046875 -13.609375 L 3.640625 -13.609375 L 9.3125 -4.046875 L 14.90625 -13.609375 L 16.5 -13.609375 L 16.515625 0 Z M 14.65625 0 "/></g></g></g><g fill="#ffffff" fill-opacity="1"><g transform="translate(425.07738, 131.685893)"><g><path d="M 11.921875 -1.6875 L 11.921875 0 L 2.046875 0 L 2.046875 -13.609375 L 11.640625 -13.609375 L 11.640625 -11.921875 L 3.984375 -11.921875 L 3.984375 -7.734375 L 10.8125 -7.734375 L 10.8125 -6.078125 L 3.984375 -6.078125 L 3.984375 -1.6875 Z M 11.921875 -1.6875 "/></g></g></g></svg>